<?xml version="1.0" encoding="UTF-8" standalone="no"?>
<svg width="400px" height="400px" viewBox="0 0 400 400" version="1.1" xmlns="http://www.w3.org/2000/svg" xmlns:xlink="http://www.w3.org/1999/xlink" xmlns:sketch="http://www.bohemiancoding.com/sketch/ns">
    <!-- Generator: Sketch 3.4.2 (15855) - http://www.bohemiancoding.com/sketch -->
    <title>Slice 1</title>
    <desc>Created with Sketch.</desc>
    <defs></defs>
    <g id="Page-1" stroke="none" stroke-width="1" fill="none" fill-rule="evenodd" sketch:type="MSPage">
        <g id="head" sketch:type="MSLayerGroup" transform="translate(20.000000, 40.000000)" stroke="#979797">
            <rect id="Rectangle-1" fill="#D8D8D8" sketch:type="MSShapeGroup" x="0" y="0" width="323" height="287"></rect>
            <rect id="Rectangle-1" fill="#FFFFFF" sketch:type="MSShapeGroup" x="35" y="33" width="323" height="287"></rect>
            <path d="M0,0 L323,0 L358.128906,33 L35.5866814,33 L0,0 Z" id="Rectangle-3" fill="#FFFFFF" sketch:type="MSShapeGroup"></path>
            <path d="M0,0 L35,31.8558807 L35,319.136719 L0,287 L0,0 Z" id="Rectangle-4" fill="#D8D8D8" sketch:type="MSShapeGroup"></path>
        </g>
        <g id="left-eye" sketch:type="MSLayerGroup" transform="translate(119.000000, 132.000000)" stroke="#979797">
            <rect id="Rectangle-5" sketch:type="MSShapeGroup" x="0" y="0" width="55" height="52"></rect>
            <rect id="Rectangle-6" sketch:type="MSShapeGroup" x="8" y="8" width="59" height="39"></rect>
            <rect id="Rectangle-7" sketch:type="MSShapeGroup" x="0" y="5" width="47" height="47"></rect>
            <rect id="Rectangle-8" sketch:type="MSShapeGroup" x="5" y="11" width="30" height="36"></rect>
        </g>
        <g id="right-eye" sketch:type="MSLayerGroup" transform="translate(275.500000, 160.000000) scale(-1, 1) translate(-275.500000, -160.000000) translate(242.000000, 134.000000)" stroke="#979797">
            <rect id="Rectangle-5" sketch:type="MSShapeGroup" transform="translate(27.500000, 26.000000) scale(-1, -1) translate(-27.500000, -26.000000) " x="0" y="0" width="55" height="52"></rect>
            <rect id="Rectangle-6" sketch:type="MSShapeGroup" transform="translate(37.500000, 27.500000) scale(-1, -1) translate(-37.500000, -27.500000) " x="8" y="8" width="59" height="39"></rect>
            <rect id="Rectangle-7" sketch:type="MSShapeGroup" transform="translate(23.500000, 28.500000) scale(-1, -1) translate(-23.500000, -28.500000) " x="0" y="5" width="47" height="47"></rect>
            <rect id="Rectangle-8" sketch:type="MSShapeGroup" transform="translate(20.000000, 29.000000) scale(-1, -1) translate(-20.000000, -29.000000) " x="5" y="11" width="30" height="36"></rect>
        </g>
        <rect id="Rectangle-13" stroke="#979797" sketch:type="MSShapeGroup" x="154" y="255" width="122" height="26"></rect>
        <rect id="Rectangle-14" stroke="#979797" sketch:type="MSShapeGroup" x="157" y="264" width="125" height="22"></rect>
        <rect id="Rectangle-15" stroke="#979797" sketch:type="MSShapeGroup" x="166" y="255" width="116" height="24"></rect>
    </g>
</svg>